<?xml version="1.0" encoding="utf-8"?>
<!-- Generator: Adobe Illustrator 19.0.0, SVG Export Plug-In . SVG Version: 6.00 Build 0)  -->
<svg version="1.1" id="Layer_1" xmlns="http://www.w3.org/2000/svg" xmlns:xlink="http://www.w3.org/1999/xlink" x="0px" y="0px"
	 viewBox="0 0 543.9 122.3" style="enable-background:new 0 0 543.9 122.3;" xml:space="preserve">
<style type="text/css">
	.st0{fill:#333333;}
	.st1{fill-rule:evenodd;clip-rule:evenodd;fill:#83C341;}
	.st2{fill-rule:evenodd;clip-rule:evenodd;fill:#1593D1;}
	.st3{fill-rule:evenodd;clip-rule:evenodd;fill:#E57E25;}
</style>
<g id="XMLID_1_">
	<path id="XMLID_2_" class="st0" d="M142.9,29.7h12.3v17.3c4.7-3.4,10.2-5.1,16.4-5.1c7.9,0,14.7,2.8,20.3,8.4
		c5.6,5.6,8.4,12.3,8.4,20.3s-2.8,14.7-8.4,20.3c-5.6,5.6-12.3,8.4-20.3,8.4c-7.9,0-14.7-2.8-20.3-8.4c-5.6-5.6-8.4-12.3-8.4-20.3
		V29.7z M160,59.1c-3.2,3.2-4.8,7.1-4.8,11.6c0,4.5,1.6,8.4,4.8,11.6S167,87,171.6,87s8.4-1.6,11.6-4.8s4.8-7.1,4.8-11.6
		c0-4.5-1.6-8.4-4.8-11.6s-7.1-4.8-11.6-4.8S163.2,55.9,160,59.1z"/>
	<path id="XMLID_6_" class="st0" d="M204.3,70.7V42h12.3v28.6c0,4.5,1.6,8.4,4.8,11.6s7.1,4.8,11.6,4.8s8.4-1.6,11.6-4.8
		s4.8-7.1,4.8-11.6V42h12.3v45c0,7.9-2.8,14.7-8.4,20.3c-5.6,5.6-12.3,8.4-20.3,8.4v-12.3c4.5,0,8.4-1.6,11.6-4.8
		c0.9-0.9,1.6-1.8,2.3-2.8c-4.1,2.3-8.8,3.5-13.9,3.5c-7.9,0-14.7-2.8-20.3-8.4C207.1,85.3,204.3,78.6,204.3,70.7z"/>
	<path id="XMLID_8_" class="st0" d="M265.7,29.7h12.3V42h16.4v12.3h-16.4v16.4c0,4.5,1.6,8.4,4.8,11.6s7.1,4.8,11.6,4.8v12.3
		c-7.9,0-14.7-2.8-20.3-8.4c-5.6-5.6-8.4-12.3-8.4-20.3V29.7z"/>
	<path id="XMLID_13_" class="st0" d="M339.8,80.9h14c-1.4,3.7-3.6,7-6.6,10c-5.6,5.6-12.3,8.4-20.3,8.4c-7.9,0-14.7-2.8-20.3-8.4
		c-5.6-5.6-8.4-12.3-8.4-20.3s2.8-14.7,8.4-20.3c5.6-5.6,12.3-8.4,20.3-8.4c7.9,0,14.7,2.8,20.3,8.4s8.4,12.3,8.4,20.3
		c0,2.1-0.2,4.2-0.6,6.1h-43.2c0.8,2,2,3.8,3.6,5.4c3.2,3.2,7.1,4.8,11.6,4.8c4.5,0,8.4-1.6,11.6-4.8
		C339.1,81.8,339.5,81.4,339.8,80.9z M342.3,64.5c-0.8-2-2-3.8-3.6-5.4c-3.2-3.2-7.1-4.8-11.6-4.8c-4.5,0-8.4,1.6-11.6,4.8
		c-1.6,1.6-2.9,3.5-3.6,5.4H342.3z"/>
	<path id="XMLID_21_" class="st0" d="M417,33.3v65.9h-12.3V62.9l-45,45V90.5L417,33.3z"/>
	<path id="XMLID_29_" class="st0" d="M421.1,70.7c0-7.9,2.8-14.7,8.4-20.3c5.6-5.6,12.3-8.4,20.3-8.4c7.9,0,14.7,2.8,20.3,8.4
		s8.4,12.3,8.4,20.3s-2.8,14.7-8.4,20.3s-12.3,8.4-20.3,8.4c-6.2,0-11.6-1.7-16.4-5.1v17.3h-12.3V70.7z M449.8,87
		c4.5,0,8.4-1.6,11.6-4.8s4.8-7.1,4.8-11.6c0-4.5-1.6-8.4-4.8-11.6s-7.1-4.8-11.6-4.8c-4.5,0-8.4,1.6-11.6,4.8s-4.8,7.1-4.8,11.6
		c0,4.5,1.6,8.4,4.8,11.6S445.3,87,449.8,87z"/>
	<path id="XMLID_33_" class="st0" d="M482.5,70.7c0-7.9,2.8-14.7,8.4-20.3s12.3-8.4,20.3-8.4s14.7,2.8,20.3,8.4s8.4,12.3,8.4,20.3
		s-2.8,14.7-8.4,20.3s-12.3,8.4-20.3,8.4c-6.2,0-11.6-1.7-16.4-5.1v17.3h-12.3V70.7z M511.2,87c4.5,0,8.4-1.6,11.6-4.8
		s4.8-7.1,4.8-11.6c0-4.5-1.6-8.4-4.8-11.6s-7.1-4.8-11.6-4.8c-4.5,0-8.4,1.6-11.6,4.8s-4.8,7.1-4.8,11.6c0,4.5,1.6,8.4,4.8,11.6
		S506.6,87,511.2,87z"/>
</g>
<g id="Ellipse_1_3_">
	<g id="XMLID_26_">
		<ellipse id="XMLID_27_" class="st1" cx="34.4" cy="91.1" rx="29" ry="29"/>
	</g>
</g>
<g id="Ellipse_1_copy_3_">
	<g id="XMLID_23_">
		<ellipse id="XMLID_24_" class="st2" cx="57" cy="25.4" rx="22.6" ry="22.6"/>
	</g>
</g>
<g id="Ellipse_1_copy_2_3_">
	<g id="XMLID_25_">
		<ellipse id="XMLID_28_" class="st3" cx="100.4" cy="64.5" rx="16.6" ry="16.6"/>
	</g>
</g>
</svg>
